<?xml version="1.0" encoding="UTF-8"?>
<svg id="Layer_2" data-name="Layer 2" xmlns="http://www.w3.org/2000/svg" viewBox="0 0 410.28 521.31">
  <defs>
    <style>
      .cls-1 {
        stroke-width: 6px;
      }

      .cls-1, .cls-2 {
        fill: none;
        stroke: #000;
        stroke-miterlimit: 10;
      }

      .cls-2 {
        stroke-width: 15px;
      }

      .cls-3 {
        fill: #efc0b4;
      }

      .cls-4 {
        fill: #ece9e4;
      }

      .cls-5 {
        fill: #e09992;
      }

      .cls-6 {
        fill: #1c4a47;
      }
    </style>
  </defs>
  <g id="Layer_1-2" data-name="Layer 1">
    <path class="cls-3" d="M316.71,199.76c7.72,0,7.73-12,0-12s-7.73,12,0,12h0Z"/>
    <polyline class="cls-5" points="228.75 110.49 228.75 97.12 327.46 97.12 327.46 193.81 313.9 193.81"/>
    <polyline class="cls-4" points="96.89 399.35 96.89 411.76 7.53 411.76 7.53 322.05 19.8 322.05"/>
    <polyline class="cls-6" points="20.02 190.12 7.03 190.12 7.03 96.19 100.96 96.19 100.96 109.09"/>
    <path d="M181.6,90.63c-5.68-29.87-27.61-55.71-56.25-66.01-7.67-2.76-16.26-4.2-24-.95-6.82,2.86-11.59,8.94-12.01,16.43-.94,16.91,16.97,28.86,29.77,36.32,17.18,10,36.38,15.9,55.29,21.64,5.55,1.69,7.93-7,2.39-8.68-13.66-4.15-27.44-8.29-40.46-14.21-12.12-5.52-26.46-12.93-34.44-24-4.15-5.76-5.65-14.46,1.51-18.53,6.67-3.79,14.98-1.18,21.59,1.44,11.49,4.57,21.67,12.17,29.79,21.45,9.31,10.65,15.49,23.62,18.13,37.5,1.08,5.68,9.76,3.28,8.68-2.39h0Z"/>
    <path d="M188.05,90.67c-2.42-27.98,16.25-51.88,42.83-59.41,6.49-1.84,13.76-3.18,20.5-2.07s13.39,5.91,9.5,13.48c-3.03,5.9-8.76,10.85-13.83,14.98-5.85,4.77-12.35,8.64-19.13,11.92-5.21,2.52-.66,10.28,4.54,7.77,12.43-6,24.53-14.46,33.05-25.45,3.72-4.8,6.81-10.93,5.43-17.18-1.25-5.63-5.69-9.87-10.8-12.19-12.07-5.45-27.53-2.07-39.27,2.71-11.75,4.79-22.25,12.47-29.83,22.7-9.09,12.25-13.29,27.57-11.98,42.74,.5,5.73,9.5,5.78,9,0h0Z"/>
    <path d="M228.39,68.89l1.51,1.5c.63-.4,1.29-.76,1.96-1.08,1.3-.65,2.66-1.17,4.05-1.61,2.46-.79,5.01-1.31,7.58-1.54,5.56-.5,10.77,.43,16.06,2.07,10.7,3.3,19.95,4.97,29.99-1.22,15.7-9.68,25.59-27.15,22.41-45.7-.98-5.7-9.65-3.28-8.68,2.39,1.84,10.73-2.62,21.35-10.08,28.98-3.87,3.96-8.94,8.03-14.41,9.41-6.59,1.67-13.1-1.54-19.34-3.29-10.69-2.99-22.97-2.34-32.83,3.08-3.78,2.08-7.9,6.04-6.27,10.81,1.44,4.23,6.36,6.29,10.43,4.87,5.43-1.89,3.1-10.59-2.39-8.68h0Z"/>
    <path d="M302.13,9c5.79,0,5.8-9,0-9s-5.8,9,0,9h0Z"/>
    <circle class="cls-2" cx="164.95" cy="256.57" r="156.45"/>
    <path class="cls-2" d="M165.95,413.02H15.54c-4.42,0-8.01-3.59-8.01-8.01V106.19c0-4.42,3.58-8,8-8H321.35c1.67,0,3.02,1.35,3.02,3.02V413.15"/>
    <circle cx="402.77" cy="98.19" r="7.51"/>
    <circle cx="324.36" cy="413.15" r="7.51"/>
    <line class="cls-1" x1="342.93" y1="444.86" x2="306.74" y2="444.86"/>
    <circle cx="342.83" cy="444.86" r="3"/>
    <circle cx="306.74" cy="444.86" r="3"/>
    <path class="cls-1" d="M39.73,517.03c-19.61,0-35.5-15.89-35.5-35.5s15.89-35.5,35.5-35.5"/>
    <line class="cls-1" x1="4.23" y1="445.8" x2="4.23" y2="517.27"/>
    <line class="cls-1" x1="324.82" y1="446.56" x2="324.82" y2="518.03"/>
    <circle class="cls-1" cx="85.35" cy="482.3" r="35.5"/>
    <line class="cls-1" x1="120.85" y1="482.3" x2="120.85" y2="518.3"/>
    <circle class="cls-1" cx="176.05" cy="481.19" r="35.5"/>
    <circle class="cls-1" cx="266.76" cy="482.3" r="35.5"/>
    <line class="cls-1" x1="211.55" y1="445.18" x2="211.55" y2="481.19"/>
    <circle cx="324.82" cy="518.03" r="3"/>
    <circle cx="211.55" cy="445.18" r="3"/>
    <circle cx="120.85" cy="518.3" r="3"/>
    <circle cx="39.94" cy="517.03" r="3"/>
    <circle cx="4.23" cy="517.27" r="3"/>
    <circle cx="39.73" cy="446.04" r="3"/>
    <circle cx="4.23" cy="445.8" r="3"/>
    <path d="M18.78,114.59c7.72,0,7.73-12,0-12s-7.73,12,0,12h0Z"/>
    <path class="cls-6" d="M15.03,143.9v-30.2c0-4.42,3.58-8,8-8H55.31"/>
    <path d="M17.74,409.51c7.72,0,7.73-12,0-12s-7.73,12,0,12h0Z"/>
    <path class="cls-4" d="M51.11,405.52H23.04c-4.42,0-8.01-3.58-8.01-8.01v-32.99"/>
    <path d="M314.29,114.31c7.72,0,7.73-12,0-12s-7.73,12,0,12h0Z"/>
    <path class="cls-5" d="M293.56,105.69h15.3c4.42,0,8,3.58,8,8v18.62"/>
    <line class="cls-2" x1="402.83" y1="98.19" x2="18.78" y2="98.19"/>
    <line class="cls-2" x1="155.89" y1="413.02" x2="17.74" y2="413.02"/>
    <line class="cls-2" x1="324.36" y1="105.23" x2="324.36" y2="243.38"/>
    <line class="cls-2" x1="7.5" y1="405.98" x2="7.5" y2="115.52"/>
  </g>
</svg>